<?xml version="1.0" encoding="utf-8"?>
<!-- Generator: Adobe Illustrator 24.1.2, SVG Export Plug-In . SVG Version: 6.00 Build 0)  -->
<svg version="1.1" id="Objects" xmlns="http://www.w3.org/2000/svg" xmlns:xlink="http://www.w3.org/1999/xlink" x="0px" y="0px"
	 viewBox="0 0 1980 1854" style="enable-background:new 0 0 1980 1854;" xml:space="preserve">
<style type="text/css">
	.st0{fill:#151416;}
</style>
<g>
	<g>
		<path class="st0" d="M1897.4,728.9c-1.6-1.6-3.2-3.1-4.8-4.7c-22.8-98.1-61.4-191.2-114.9-277c-54.1-86.8-121.9-163.5-201.3-228
			c-80.2-65.1-169.9-115.9-266.6-150.9C1209.6,32.1,1104.4,13.8,997,13.8S784.4,32.1,684.3,68.3c-96.7,35-186.4,85.7-266.6,150.9
			c-79.5,64.6-147.2,141.3-201.3,228c-53.5,85.7-92.1,178.9-114.9,277c-1.6,1.5-3.2,3.1-4.8,4.7C43.3,782.1,14,852.9,14,928.3v10
			c0,75.3,29.3,146.2,82.6,199.4c1.6,1.6,3.2,3.1,4.8,4.7c22.8,98.1,61.4,191.2,114.9,277c54.1,86.8,121.9,163.5,201.3,228
			c80.2,65.1,169.9,115.9,266.6,150.9c100.1,36.2,205.3,54.6,312.7,54.6s212.6-18.4,312.7-54.6c96.7-35,186.4-85.7,266.6-150.9
			c79.5-64.6,147.2-141.3,201.3-228c53.5-85.7,92.1-178.9,114.9-277c1.6-1.5,3.2-3.1,4.8-4.7c53.3-53.3,82.6-124.1,82.6-199.4v-10
			C1980,852.9,1950.7,782.1,1897.4,728.9z M1816.1,672c-36.6-16.9-76.7-25.8-118.1-25.8h-270.9c-8.5-53.4-19.3-104.9-32.3-154.1
			c99.9-18.9,196.4-45,287.5-77.8c15.8,20.8,30.6,42.4,44.5,64.6C1764.7,539.7,1794.6,604.4,1816.1,672z M1027,76.4
			c30.1,5.2,59.8,18.3,88.8,39.1c39.2,28.1,76.1,69.6,109.9,123.3c34.2,54.3,64,119.5,88.7,193.8c1.3,4,2.6,7.9,3.9,11.9
			c-95.1,14.7-192.7,22.9-291.3,24.2V76.4z M878.2,115.5c29-20.8,58.7-33.9,88.8-39.1v392.3c-98.6-1.4-196.3-9.5-291.3-24.2
			c1.3-4,2.6-8,3.9-11.9c24.7-74.3,54.6-139.5,88.7-193.8C802.1,185.1,839.1,143.6,878.2,115.5z M658.6,502.5
			c100.6,16,204,24.8,308.4,26.2v117.6H627.7C635.9,596.4,646.2,548.3,658.6,502.5z M1027,528.7c104.4-1.4,207.9-10.2,308.4-26.2
			c12.4,45.8,22.7,93.9,30.9,143.7H1027V528.7z M1538.5,265.8c37.3,30.3,71.8,63.5,103.4,99.2c-83.9,29-172.4,52.2-263.9,69.3
			c-2.2-7-4.4-13.9-6.7-20.7c-26.2-78.8-58.2-148.4-94.9-206.8c-28.3-45-59.1-82.7-91.8-112.5c35.4,7.9,70.4,18,104.6,30.4
			C1379.7,157.4,1463.6,204.9,1538.5,265.8z M455.5,265.8c75-60.9,158.8-108.3,249.2-141c34.3-12.4,69.2-22.5,104.6-30.4
			c-32.7,29.8-63.5,67.5-91.8,112.5c-36.7,58.4-68.6,127.9-94.9,206.8c-2.3,6.8-4.5,13.8-6.7,20.7C524.5,417.2,436,394,352.1,365
			C383.6,329.2,418.2,296.1,455.5,265.8z M267.2,479c13.9-22.3,28.7-43.8,44.5-64.6c91.1,32.8,187.6,58.9,287.5,77.8
			c-13,49.2-23.8,100.7-32.3,154.1H296c-41.5,0-81.6,8.9-118.1,25.8C199.4,604.4,229.3,539.7,267.2,479z M177.9,1194.5
			c36.6,16.9,76.7,25.8,118.1,25.8h270.9c8.5,53.4,19.3,104.9,32.3,154.1c-99.9,18.9-196.4,45-287.5,77.8
			c-15.8-20.8-30.6-42.4-44.5-64.6C229.3,1326.8,199.4,1262.1,177.9,1194.5z M967,1790.1c-30.1-5.2-59.8-18.3-88.8-39.1
			c-39.2-28.1-76.1-69.6-109.9-123.3c-34.2-54.3-64-119.5-88.7-193.8c-1.3-4-2.6-8-3.9-11.9c95.1-14.7,192.7-22.9,291.3-24.2V1790.1
			z M1115.8,1751c-29,20.8-58.7,33.9-88.8,39.1v-392.3c98.6,1.4,196.3,9.5,291.3,24.2c-1.3,4-2.6,8-3.9,11.9
			c-24.7,74.3-54.6,139.5-88.7,193.8C1191.9,1681.4,1154.9,1722.9,1115.8,1751z M1335.4,1364c-100.6-16-204-24.8-308.4-26.2v-117.6
			h339.3C1358.1,1270.1,1347.8,1318.2,1335.4,1364z M967,1337.8c-104.4,1.4-207.9,10.2-308.4,26.2c-12.4-45.8-22.7-93.9-30.9-143.7
			H967V1337.8z M455.5,1600.7c-37.3-30.3-71.8-63.5-103.4-99.2c83.9-29,172.4-52.2,263.9-69.3c2.2,7,4.4,13.9,6.7,20.7
			c26.2,78.8,58.2,148.4,94.9,206.8c28.3,45,59.1,82.7,91.8,112.5c-35.4-7.9-70.4-18-104.6-30.4
			C614.3,1709.1,530.4,1661.6,455.5,1600.7z M1538.5,1600.7c-75,60.9-158.8,108.3-249.2,141c-34.3,12.4-69.2,22.5-104.6,30.4
			c32.7-29.8,63.5-67.5,91.8-112.5c36.7-58.4,68.6-127.9,94.9-206.8c2.3-6.8,4.5-13.8,6.7-20.7c91.4,17.1,179.9,40.3,263.9,69.3
			C1610.3,1537.3,1575.8,1570.4,1538.5,1600.7z M1726.8,1387.5c-13.9,22.3-28.7,43.8-44.5,64.6c-91.1-32.8-187.6-58.9-287.5-77.8
			c13-49.2,23.8-100.7,32.3-154.1H1698c41.5,0,81.6-8.9,118.1-25.8C1794.6,1262.1,1764.7,1326.8,1726.8,1387.5z M1920,938.2
			c0,59.3-23.1,115.1-65,157s-97.7,65-157,65H296c-59.3,0-115.1-23.1-157-65s-65-97.7-65-157v-10c0-59.3,23.1-115.1,65-157
			s97.7-65,157-65h1402c59.3,0,115.1,23.1,157,65s65,97.7,65,157V938.2z"/>
		<polygon class="st0" points="581.2,990.1 579.7,990.1 530,797.2 464.1,797.2 414.1,990.1 412.6,990.1 371,797.2 289.9,797.2 
			370.4,1089.3 447.6,1089.3 496.3,914.2 497.8,914.2 546.4,1089.3 623.5,1089.3 703.9,797.2 623.1,797.2 		"/>
		<polygon class="st0" points="1074,990.1 1072.5,990.1 1022.7,797.2 956.8,797.2 906.8,990.1 905.4,990.1 863.7,797.2 782.6,797.2 
			863.1,1089.3 940.4,1089.3 989,914.2 990.5,914.2 1039.2,1089.3 1116.2,1089.3 1196.7,797.2 1115.8,797.2 		"/>
		<polygon class="st0" points="1566.7,990.1 1565.2,990.1 1515.5,797.2 1449.5,797.2 1399.6,990.1 1398.1,990.1 1356.5,797.2 
			1275.4,797.2 1355.8,1089.3 1433.1,1089.3 1481.7,914.2 1483.2,914.2 1531.9,1089.3 1608.9,1089.3 1689.4,797.2 1608.5,797.2 		
			"/>
	</g>
</g>
</svg>
