<?xml version="1.0" encoding="utf-8"?>
<!-- Generator: Adobe Illustrator 24.1.2, SVG Export Plug-In . SVG Version: 6.00 Build 0)  -->
<svg version="1.1" id="Graphic_Elements" xmlns="http://www.w3.org/2000/svg" xmlns:xlink="http://www.w3.org/1999/xlink" x="0px"
	 y="0px" viewBox="0 0 370 748" style="enable-background:new 0 0 370 748;" xml:space="preserve">
<style type="text/css">
	.st0{fill:#FFFFFF;stroke:#1A1A1A;stroke-width:2;stroke-miterlimit:10;}
</style>
<g>
	<g>
		<path class="st0" d="M364.1,50.7v646.6c0,2.3-0.2,4.5-0.5,6.7c-0.1,0.5-0.2,1.1-0.3,1.6c-0.5,2.7-1.3,5.4-2.3,7.9
			c-0.2,0.5-0.4,1-0.6,1.5c-1.4,3.2-3.2,6.2-5.2,8.9c-0.2,0.3-0.4,0.5-0.6,0.8c-1.4,1.8-3,3.5-4.7,5.1c-0.7,0.6-1.4,1.2-2.1,1.8
			c-0.3,0.2-0.5,0.4-0.8,0.6c-0.8,0.6-1.6,1.2-2.4,1.7c-0.1,0-0.1,0.1-0.2,0.1c-0.5,0.3-1,0.6-1.5,1c-0.6,0.3-1.1,0.7-1.7,1
			c-0.6,0.3-1.2,0.6-1.8,0.9c-0.3,0.1-0.6,0.3-0.9,0.4c-0.3,0.2-0.6,0.3-0.9,0.4c-0.9,0.4-1.9,0.8-2.8,1.1c-0.6,0.2-1.3,0.4-1.9,0.6
			c-0.3,0.1-0.6,0.2-1,0.3c-1,0.3-2,0.5-3,0.7c-0.3,0.1-0.7,0.1-1,0.2c-0.3,0.1-0.7,0.1-1,0.2c-0.7,0.1-1.4,0.2-2.1,0.3
			c-0.5,0.1-1,0.1-1.5,0.1c-0.4,0-0.8,0.1-1.2,0.1c-0.8,0-1.5,0.1-2.3,0.1H50.2c-0.8,0-1.5,0-2.3-0.1c-0.4,0-0.8,0-1.2-0.1
			c-0.8-0.1-1.6-0.1-2.4-0.2c0.3,0,0.6,0.1,0.9,0.1c-22.1-2.5-39.3-21.3-39.3-44V50.7c0-23.6,18.6-43,42-44.2h0
			c0.8,0,1.5-0.1,2.3-0.1h269.5c0.8,0,1.5,0,2.3,0.1h0c0.4,0,0.8,0,1.2,0.1c0.4,0,0.8,0.1,1.2,0.1C346.7,9,364.1,27.9,364.1,50.7z"
			/>
		<path class="st0" d="M319.8,0.4H50.2C22.4,0.4-0.2,22.9-0.2,50.7v646.6c0,27.8,22.6,50.4,50.4,50.4h269.6
			c27.8,0,50.4-22.5,50.4-50.4V50.7C370.2,22.9,347.6,0.4,319.8,0.4z M349.8,729.8c-0.7,0.6-1.4,1.2-2.1,1.8
			c-0.3,0.2-0.5,0.4-0.8,0.6c-0.8,0.6-1.6,1.2-2.4,1.7c-0.1,0-0.1,0.1-0.2,0.1c-0.5,0.3-1,0.6-1.5,1c-0.6,0.3-1.1,0.7-1.7,1
			c-0.6,0.3-1.2,0.6-1.8,0.9c-0.3,0.1-0.6,0.3-0.9,0.4c-0.3,0.2-0.6,0.3-0.9,0.4c-0.9,0.4-1.9,0.8-2.8,1.1c-0.6,0.2-1.3,0.4-1.9,0.6
			c-0.3,0.1-0.6,0.2-1,0.3c-1,0.3-2,0.5-3,0.7c-0.3,0.1-0.7,0.1-1,0.2c-0.3,0.1-0.7,0.1-1,0.2c-0.7,0.1-1.4,0.2-2.1,0.3
			c-0.5,0.1-1,0.1-1.5,0.1c-0.4,0-0.8,0.1-1.2,0.1c-0.8,0-1.5,0.1-2.3,0.1H50.2c-0.8,0-1.5,0-2.3-0.1c-0.4,0-0.8,0-1.2-0.1
			c-0.8-0.1-1.6-0.1-2.4-0.2c0.3,0,0.6,0.1,0.9,0.1c-22.1-2.5-39.3-21.3-39.3-44V50.7c0-23.6,18.6-43,42-44.2h0
			c0.8,0,1.5-0.1,2.3-0.1h269.5c0.8,0,1.5,0,2.3,0.1h0c0.4,0,0.8,0,1.2,0.1c0.4,0,0.8,0.1,1.2,0.1c22.2,2.4,39.6,21.2,39.6,44.1
			v646.6c0,2.3-0.2,4.5-0.5,6.7c-0.1,0.5-0.2,1.1-0.3,1.6c-0.5,2.7-1.3,5.4-2.3,7.9c-0.2,0.5-0.4,1-0.6,1.5
			c-1.4,3.2-3.2,6.2-5.2,8.9c-0.2,0.3-0.4,0.5-0.6,0.8C353.1,726.5,351.5,728.2,349.8,729.8z"/>
	</g>
	<path class="st0" d="M203.6,31.2h-39.5c-1,0-1.8-0.8-1.8-1.8v-1c0-1,0.8-1.8,1.8-1.8h39.5c1,0,1.8,0.8,1.8,1.8v1
		C205.4,30.4,204.6,31.2,203.6,31.2z"/>
	<path class="st0" d="M321.6,23.8h-0.2l-0.4,0c-0.4,0-0.8,0-1.2,0h-38.9c-2.2,0.1-4,1.8-4.2,4c0,0.1,0,0.3,0,0.5v0.1
		c-0.5,11.4-9.9,20.5-21.5,20.5h-66.4h-7.5h-66.4c-11.5,0-20.9-9.1-21.5-20.5v-0.1c0-0.2,0-0.3,0-0.5c-0.2-2.2-2-3.9-4.2-4H50.2
		c-0.4,0-0.8,0-1.2,0l-0.4,0h-0.2c-14.2,0.9-25.2,12.7-25.2,26.9v646.5c0,14,10.9,25.8,24.9,26.9c0.1,0,0.3,0,0.4,0h0.1l0.1,0h0.2
		l0.1,0c0.5,0,0.9,0,1.4,0h131h7.5h131c0.5,0,0.9,0,1.4,0l0.1,0h0.2l0.1,0h0.1c0.1,0,0.2,0,0.4,0c13.9-1.1,24.9-12.9,24.9-26.9V50.7
		C346.8,36.5,335.7,24.7,321.6,23.8z"/>
</g>
</svg>
